<svg width="351" height="351" viewBox="0 0 351 351" fill="none" xmlns="http://www.w3.org/2000/svg">
<path d="M204.96 30.1418H88.2937C80.5582 30.1418 73.1396 33.2148 67.6698 38.6846C62.2 44.1544 59.127 51.573 59.127 59.3085V292.642C59.127 300.377 62.2 307.796 67.6698 313.266C73.1396 318.736 80.5582 321.809 88.2937 321.809H263.294C271.029 321.809 278.448 318.736 283.918 313.266C289.387 307.796 292.46 300.377 292.46 292.642V117.642L204.96 30.1418Z" stroke="#E9E9E9" stroke-width="20" stroke-linecap="round" stroke-linejoin="round"/>
<path d="M204.96 30.1418V117.642H292.46" stroke="#E9E9E9" stroke-width="20" stroke-linecap="round" stroke-linejoin="round"/>
<path d="M234.127 190.559H117.46" stroke="#E9E9E9" stroke-width="20" stroke-linecap="round" stroke-linejoin="round"/>
<path d="M234.127 248.892H117.46" stroke="#E9E9E9" stroke-width="20" stroke-linecap="round" stroke-linejoin="round"/>
<path d="M146.627 132.225H132.044H117.46" stroke="#E9E9E9" stroke-width="20" stroke-linecap="round" stroke-linejoin="round"/>
</svg>
